<?xml version="1.0" encoding="UTF-8"?> <svg xmlns="http://www.w3.org/2000/svg" width="220" height="44" viewBox="0 0 220 44" fill="none"><path d="M65.6272 0.910205L64.1541 0.576429C63.9085 0.521114 63.6711 0.675744 63.6221 0.92529L59.382 22.0814C59.3544 22.2184 59.154 22.1807 59.1665 22.0412L61.3117 0.494085C61.3299 0.296082 61.1823 0.117565 60.9876 0.101851L60.1697 0.03585C59.9913 0.0213927 59.8368 0.15088 59.8161 0.331911L57.0477 24.8258C57.0314 24.9672 56.826 24.9471 56.8279 24.8044L57.0898 0.368369C57.0924 0.15968 56.9184 -0.011922 56.7148 0.000649568L56.2318 0.0283071C56.0622 0.0383644 55.9303 0.176652 55.9246 0.351397L55.0785 26.6323C55.0734 26.7706 54.8743 26.7687 54.8636 26.6298L52.775 0.759345C52.7624 0.599686 52.6148 0.484027 52.4628 0.514828L51.9948 0.609115C51.8767 0.633001 51.7957 0.741117 51.802 0.865575L53.2229 27.8166C53.2304 27.9605 53.0256 27.9787 53.0005 27.8354L48.413 1.95365C48.3835 1.79022 48.2177 1.68964 48.0682 1.74496L47.7403 1.86502C47.631 1.90588 47.5644 2.01902 47.582 2.13971L51.2888 28.5753C51.3082 28.7129 51.1148 28.7481 51.0777 28.6142L44.3105 3.8067C44.2653 3.64201 44.0825 3.5603 43.9393 3.64013L43.7018 3.77276C43.607 3.82619 43.5592 3.93807 43.585 4.04808L49.4093 29.1196C49.4413 29.2554 49.2535 29.3107 49.2026 29.1806L40.4015 6.39205C40.338 6.22862 40.1408 6.16953 40.0089 6.27388L39.8292 6.41656C39.7457 6.48194 39.7149 6.59634 39.7507 6.70005L47.5613 29.2768C47.6071 29.4075 47.4275 29.4836 47.3634 29.361L37.0791 9.43878C36.9975 9.28163 36.7927 9.24706 36.6752 9.37089L36.5923 9.45889C36.5194 9.53495 36.5031 9.65124 36.5496 9.7493L45.7886 29.3358C45.8476 29.4603 45.6812 29.5577 45.6026 29.4446L34.2329 12.9582C34.1557 12.8476 34.0093 12.8168 33.9013 12.8897C33.7907 12.9645 33.7618 13.1185 33.8359 13.236L43.8074 29.1184C43.8815 29.2359 43.7307 29.3572 43.6359 29.2566L32.1449 16.5235C32.1079 16.4839 32.0576 16.4638 32.008 16.4638C31.9634 16.4638 31.9194 16.4801 31.8849 16.5134C31.8151 16.5813 31.812 16.6945 31.8761 16.7724L40.713 27.8153C40.8035 27.924 40.6571 28.0636 40.5573 27.9637C40.5573 27.9637 40.5554 27.9618 40.5516 27.958C40.5516 27.958 15.275 2.70543 15.2688 2.69914C14.4346 1.90965 13.3258 1.42501 12.1223 1.42501C10.0374 1.42501 8.33197 2.87954 7.88723 4.85454L0.0100891 42.5178C-0.0433046 42.773 0.120645 43.0313 0.373794 43.0892L1.84683 43.4229C2.09244 43.4789 2.32989 43.3236 2.37951 43.0747L6.6196 21.9186C6.64724 21.7816 6.84762 21.8193 6.83506 21.9588L4.68989 43.5059C4.67167 43.7033 4.81929 43.8824 5.01402 43.8982L5.83189 43.9641C6.01028 43.978 6.16481 43.8491 6.18554 43.6681L8.95385 19.1742C8.97018 19.0328 9.17559 19.0529 9.1737 19.1956L8.91176 43.6316C8.90988 43.8403 9.08325 44.0119 9.28677 43.9994L9.77046 43.9717C9.94006 43.9616 10.072 43.8233 10.0776 43.6486L10.9238 17.3683C10.9288 17.23 11.1279 17.2319 11.1392 17.3708L13.2272 43.2407C13.2398 43.4003 13.3874 43.516 13.5394 43.4852L14.0074 43.3909C14.1255 43.367 14.2065 43.2589 14.2002 43.1344L12.7787 16.1834C12.7712 16.0395 12.976 16.0213 13.0011 16.1639L17.5892 42.0464C17.6187 42.2092 17.7845 42.3104 17.934 42.255L18.2619 42.135C18.3712 42.0941 18.4378 41.981 18.4202 41.8603L14.7135 15.4247C14.694 15.2871 14.8875 15.2519 14.9245 15.3858L21.6917 40.1933C21.7369 40.358 21.9197 40.4397 22.0629 40.3599L22.3004 40.2272C22.3952 40.1744 22.443 40.0619 22.4172 39.9519L16.5929 14.8804C16.5609 14.7446 16.7487 14.6893 16.7996 14.8194L25.6007 37.6073C25.6642 37.7708 25.8614 37.8298 25.9933 37.7255L26.173 37.5828C26.2565 37.5174 26.2873 37.403 26.2515 37.2993L18.441 14.7226C18.3951 14.5919 18.5748 14.5158 18.6388 14.6384L28.9231 34.5606C29.0048 34.7177 29.2095 34.7523 29.327 34.6285L29.4099 34.5405C29.4828 34.4644 29.4991 34.3481 29.4526 34.2501L20.2136 14.6635C20.1546 14.5391 20.3211 14.4416 20.3996 14.5548L31.7693 31.0412C31.8466 31.1518 31.9935 31.1826 32.101 31.1097C32.2115 31.0349 32.2404 30.8809 32.1663 30.764L22.1949 14.8816C22.1207 14.7641 22.2715 14.6428 22.3663 14.7434L33.8567 27.4759C33.8937 27.5155 33.944 27.5356 33.9936 27.5356C34.0382 27.5356 34.0822 27.5186 34.1167 27.4853C34.1865 27.4174 34.1896 27.3043 34.1255 27.2263L25.2885 16.1828C25.1981 16.0741 25.3445 15.9345 25.4443 16.0345C25.4443 16.0345 50.7266 41.2927 50.7328 41.299C51.567 42.0885 52.6757 42.5731 53.8793 42.5731C55.9642 42.5731 57.6696 41.1186 58.1144 39.1442L65.9909 1.48158C66.0443 1.22638 65.8803 0.967405 65.6272 0.910205Z" fill="#0A0D11"></path><g clip-path="url(#clip0_40_114)"><path d="M117.333 8.85449V35.1433C117.333 35.4054 117.129 35.6169 116.876 35.6169H114.316C113.659 35.6169 113.029 35.3482 112.563 34.868L92.4236 14.1404V35.1455C92.4236 35.4076 92.2194 35.6191 91.9661 35.6191H88.4575C88.2043 35.6191 88 35.4076 88 35.1455V8.85449C88 8.5924 88.2043 8.38096 88.4575 8.38096H91.8534C92.5109 8.38096 93.1428 8.65186 93.6088 9.13421L112.869 29.0424V8.85449C112.869 8.5924 113.074 8.38096 113.327 8.38096H116.874C117.127 8.38096 117.331 8.5924 117.331 8.85449H117.333Z" fill="#0A0D11"></path><path d="M151.905 32.0089V35.1455C151.905 35.4076 151.696 35.6191 151.437 35.6191H126.012C125.27 35.6191 124.667 35.0089 124.667 34.2578V9.7422C124.667 8.9911 125.27 8.38096 126.012 8.38096H151.051C151.31 8.38096 151.519 8.59241 151.519 8.85453V11.9911C151.519 12.2532 151.31 12.4647 151.051 12.4647H129.242V19.7423H147.59C147.849 19.7423 148.058 19.9537 148.058 20.2159V23.3524C148.058 23.6146 147.849 23.826 147.59 23.826H129.242V31.5309H151.437C151.696 31.5309 151.905 31.7424 151.905 32.0045V32.0089Z" fill="#0A0D11"></path><path d="M172.508 21.8447L184.291 35.0376C184.49 35.2601 184.336 35.6191 184.044 35.6191H179.485C179.248 35.6191 179.021 35.5177 178.859 35.3371L169.6 25.0361L160.792 34.7997C160.32 35.3239 159.658 35.6191 158.965 35.6191H155.385C155.092 35.6191 154.938 35.2601 155.137 35.0376L166.883 21.8844L155.255 8.96682C155.054 8.74437 155.208 8.38316 155.502 8.38316H160.059C160.296 8.38316 160.523 8.48448 160.683 8.66288L169.829 18.8097L178.449 9.20689C178.921 8.6805 179.585 8.38096 180.279 8.38096H183.888C184.182 8.38096 184.334 8.74217 184.133 8.96462L172.508 21.8447Z" fill="#0A0D11"></path><path d="M186.41 22C186.41 12.8676 192.803 7.33334 203.165 7.33334C213.527 7.33334 219.918 12.8676 219.918 22C219.918 31.1325 213.525 36.6667 203.165 36.6667C192.806 36.6667 186.41 31.1325 186.41 22ZM215.181 22C215.181 15.2804 210.482 11.5232 203.165 11.5232C195.848 11.5232 191.111 15.2781 191.111 22C191.111 28.7219 195.809 32.4768 203.165 32.4768C210.521 32.4768 215.181 28.7219 215.181 22Z" fill="#0A0D11"></path></g><defs><clipPath id="clip0_40_114"><rect width="132" height="29.3333" fill="white" transform="translate(88 7.33334)"></rect></clipPath></defs></svg> 